<svg xmlns="http://www.w3.org/2000/svg" width="1244" height="601" viewBox="0 0 1244 601">
  <path fill="none" stroke="#83B30C" stroke-linecap="round" stroke-linejoin="round" stroke-width="2"
    d="M952,48 L939,48 M979,60 L907,60 M965,72 L881,72 M1098,84 L1071,84 M1034,84 L867,84 M821,84 L836,84 M844,84 L861,84 M842,96 L1141,96 M813,96 L835,96 M689,96 L662,96 M716,108 L639,108 M1217,108 L843,108 M836,108 L763,108 M697,120 L626,120 M737,120 L1243,120 M706,120 L722,120 M704,132 L667,132 M715,132 L1202,132 M617,132 L656,132 M1150,144 L655,144 M601,144 L642,144 M1193,144 L1155,144 M1154,156 L1145,156 M603,156 L646,156 M668,156 L1121,156 M623,168 L639,168 M625,174 L636,174 M1071,168 L657,168 M1152,168 L1129,168 M617,180 L612,180 M1056,180 L647,180 M1147,180 L1125,180 M1140,186 L1125,186 M1136,192 L1127,192 M1074,192 L597,192 M582,204 L1074,204 M1069,216 L719,216 M712,216 L573,216 M636,228 L681,228 M1056,228 L717,228 M1035,240 L727,240 M577,228 L625,228 M648,240 L680,240 M692,240 L708,240 M638,240 L625,240 M588,240 L551,240 M657,252 L662,252 M581,252 L549,252 M1031,252 L1017,252 M994,252 L676,252 M1033,264 L1022,264 M707,264 L1000,264 M620,264 L560,264 M636,276 L549,276 M662,276 L653,276 M1006,276 L703,276 M695,288 L544,288 M703,288 L748,288 M1007,288 L759,288 M711,300 L756,300 M702,300 L531,300 M1000,300 L782,300 M706,312 L524,312 M983,312 L822,312 M718,312 L788,312 M712,324 L523,324 M725,324 L784,324 M952,324 L910,324 M880,324 L835,324 M959,336 L910,336 M731,336 L763,336 M732,342 L752,342 M719,336 L524,336 M838,336 L865,336 M731,348 L523,348 M526,25 L350,25 M400,13 L376,13 M419,13 L408,13 M508,13 L426,13 M486,1 L451,1 M246,24 L266,24 M252,36 L283,36 M259,42 L273,42 M515,37 L341,37 M514,49 L340,49 M372,61 L512,61 M384,73 L510,73 M388,85 L505,85 M143,96 L128,96 M263,96 L245,96 M394,97 L502,97 M22,96 L68,96 M396,109 L481,109 M282,108 L297,108 M252,108 L275,108 M238,108 L245,108 M214,108 L204,108 M1,108 L183,108 M394,121 L458,121 M3,120 L287,120 M19,132 L275,132 M439,133 L400,133 M434,145 L409,145 M3,144 L257,144 M331,144 L307,144 M88,156 L251,156 M358,156 L352,156 M341,156 L308,156 M52,156 L58,156 M46,156 L52,156 M14,156 L45,156 M115,168 L265,168 M367,168 L314,168 M28,168 L35,168 M11,180 L19,180 M378,180 L305,180 M292,180 L124,180 M307,192 L386,192 M135,192 L297,192 M147,204 L347,204 M147,216 L354,216 M350,228 L358,228 M147,228 L341,228 M148,240 L334,240 M151,252 L319,252 M159,264 L315,264 M173,276 L301,276 M189,288 L251,288 M180,288 L184,288 M199,300 L243,300 M189,300 L193,300 M296,300 L301,300 M211,312 L240,312 M265,324 L277,324 M215,324 L245,324 M241,336 L282,336 M276,348 L292,348 M302,360 L309,360 M286,360 L293,360 M314,360 L368,360 M312,372 L388,372 M309,384 L406,384 M412,396 L422,396 M298,396 L402,396 M297,408 L451,408 M305,420 L460,420 M311,432 L452,432 M319,444 L446,444 M334,456 L444,456 M336,468 L438,468 M335,480 L417,480 M332,492 L412,492 M330,504 L400,504 M329,516 L394,516 M325,528 L382,528 M324,540 L364,540 M325,552 L355,552 M320,564 L347,564 M321,576 L347,576 M323,588 L341,588 M330,600 L335,600 M963,348 L936,348 M931,348 L926,348 M930,360 L925,360 M952,360 L948,360 M843,348 L862,348 M848,360 L858,360 M756,360 L532,360 M586,372 L547,372 M752,372 L599,372 M940,372 L932,372 M944,384 L938,384 M742,384 L615,384 M728,396 L612,396 M718,408 L621,408 M1080,432 L1077,432 M720,420 L626,420 M1048,432 L1056,432 M723,432 L629,432 M726,444 L625,444 M1088,444 L1076,444 M1055,444 L1019,444 M711,456 L623,456 M1006,456 L1093,456 M704,468 L628,468 M1104,468 L985,468 M1113,480 L977,480 M702,480 L632,480 M635,492 L695,492 M1118,492 L980,492 M1118,498 L983,498 M1117,504 L985,504 M644,504 L686,504 M646,516 L670,516 M996,516 L984,516 M1057,516 L1054,516 M1110,516 L1062,516 M970,54 L932,54 M976,66 L881,66 M1033,78 L863,78 M874,90 L1109,90 M840,90 L870,90 M813,90 L832,90 M697,102 L645,102 M1168,102 L841,102 M1206,102 L1179,102 M836,102 L793,102 M724,114 L632,114 M843,114 L1227,114 M748,114 L833,114 M734,114 L739,114 M702,126 L670,126 M721,126 L1210,126 M1223,126 L1239,126 M624,126 L657,126 M1206,138 L656,138 M610,138 L647,138 M1181,150 L1153,150 M599,150 L642,150 M658,150 L1126,150 M622,162 L642,162 M601,162 L613,162 M1075,162 L664,162 M1149,162 L1137,162 M618,174 L609,174 M1061,174 L655,174 M1149,174 L1125,174 M1073,186 L610,186 M590,198 L1073,198 M565,210 L1072,210 M1063,222 L713,222 M705,222 L697,222 M1041,234 L725,234 M577,222 L685,222 M645,234 L679,234 M630,234 L619,234 M592,234 L551,234 M652,246 L661,246 M636,246 L645,246 M581,246 L551,246 M1031,246 L1008,246 M999,246 L673,246 M1033,258 L1022,258 M680,258 L1004,258 M657,258 L662,258 M618,270 L556,270 M575,258 L551,258 M617,258 L604,258 M1006,270 L706,270 M1007,282 L547,282 M707,294 L752,294 M698,294 L535,294 M1004,294 L767,294 M707,306 L528,306 M992,306 L817,306 M714,306 L779,306 M712,318 L522,318 M721,318 L788,318 M958,318 L903,318 M885,318 L835,318 M953,330 L910,330 M728,330 L775,330 M718,330 L525,330 M836,330 L873,330 M725,342 L520,342 M538,19 L367,19 M503,7 L431,7 M252,18 L260,18 M244,30 L278,30 M515,31 L354,31 M507,43 L327,43 M342,55 L506,55 M379,67 L513,67 M386,79 L503,79 M257,90 L247,90 M392,91 L506,91 M31,90 L40,90 M403,103 L494,103 M283,102 L295,102 M252,102 L267,102 M110,102 L161,102 M12,102 L97,102 M393,115 L464,115 M9,114 L298,114 M1,126 L274,126 M444,127 L399,127 M434,139 L404,139 M432,151 L420,151 M8,138 L265,138 M70,150 L252,150 M341,150 L308,150 M6,150 L65,150 M105,162 L256,162 M363,162 L308,162 M31,162 L44,162 M19,174 L27,174 M368,174 L314,174 M275,174 L121,174 M306,186 L382,186 M125,186 L296,186 M136,198 L377,198 M152,210 L356,210 M149,222 L360,222 M146,234 L334,234 M147,246 L323,246 M155,258 L317,258 M167,270 L307,270 M187,282 L297,282 M176,282 L182,282 M196,294 L241,294 M181,294 L189,294 M294,294 L302,294 M291,288 L299,288 M263,288 L271,288 M204,306 L241,306 M191,306 L196,306 M267,318 L278,318 M214,318 L242,318 M228,330 L273,330 M260,342 L292,342 M282,354 L290,354 M319,354 L343,354 M307,366 L377,366 M298,366 L303,366 M311,378 L403,378 M301,390 L406,390 M302,402 L443,402 M300,414 L460,414 M309,426 L458,426 M315,438 L448,438 M327,450 L445,450 M336,462 L442,462 M335,474 L424,474 M334,486 L412,486 M332,498 L407,498 M331,510 L398,510 M327,522 L381,522 M324,534 L364,534 M327,546 L355,546 M326,558 L353,558 M321,570 L352,570 M320,582 L341,582 M328,594 L337,594 M963,342 L923,342 M930,354 L926,354 M961,354 L944,354 M841,342 L862,342 M846,354 L861,354 M735,354 L529,354 M760,354 L745,354 M756,366 L538,366 M933,366 L928,366 M944,378 L933,378 M747,378 L615,378 M734,390 L615,390 M723,402 L617,402 M721,414 L625,414 M723,426 L629,426 M726,438 L627,438 M1083,438 L1075,438 M1056,438 L1036,438 M718,450 L623,450 M1074,450 L1090,450 M1011,450 L1064,450 M704,462 L626,462 M1099,462 L998,462 M1108,474 L979,474 M705,474 L632,474 M634,486 L697,486 M1116,486 L980,486 M639,498 L690,498 M646,510 L681,510 M1016,510 L986,510 M1111,510 L1050,510 M1104,528 L1071,528 M1106,522 L1067,522" />
</svg>