<svg height="40" viewBox="0 0 200 40" width="200" xmlns="http://www.w3.org/2000/svg">
    <path
        d="m42.8031948 4.03789474c8.5611304 0 15.5146426 7.15957896 15.5146426 15.96210526 0 6.4871559-3.7754615 12.0829123-9.2126615 14.5771857l-.3037628.1353659v-14.4589474c.8-.1776421 1.4495597-.6677474 1.9839443-1.4243368.6383821-.9029474.9951669-2.0937263.9951669-3.3519579 0-1.2581895-.348761-2.4490106-.9855417-3.3519579-.6831866-.9671158-1.6079459-1.5-2.6095024-1.5-1.0015564 0-1.9279131.5328842-2.6095023 1.5-.6383904.9029473-.9887774 2.0937263-.9887774 3.3519579 0 1.2581894.3391767 2.4490105.9759574 3.3519579.4857669.6878086 1.1117403 1.1553927 1.7624611 1.3681793l.1958432.0561575v14.9456842c-1.528077.5115116-3.1248003.769739-4.7327462.7632806-1.5233832.0013675-3.0390363-.2289791-4.4956322-.683916l-.4832743-.1599541-.0080032-15.1183157c1.530703-.2925911 2.6605581-1.6207241 2.7537369-3.2021571l.0061648-.1909377v-4.9688421c0-.3634863-.2863895-.6578947-.6399755-.6578947-.3214417 0-.5873492.2433127-.6330395.5606441l-.0069359.0972506v4.9688421c-.0060136.8839133-.5364403 1.6687461-1.3271164 1.9883871l-.1512371.0543919v-.0016421l-.0175957-7.0248421c-.0029043-.3334163-.2398505-.6097608-.5509653-.6609541l-.0953996-.0084354c-.3258057.0060096-.5907898.2539365-.6350729.5745277l-.006504.0981881.0239975 6.9966694c-.787477-.2744605-1.3316789-1.0057302-1.3939922-1.8468725l-.0059668-.1695906v-4.9688421c0-.3634863-.2863895-.6578948-.6399755-.6578948-.3214417 0-.5873492.2433128-.6330395.5606441l-.0069359.0972507v4.9688421c-.003067 1.5742383 1.0304443 2.9422904 2.4960941 3.3402474l.1854132.0446368.0175998 14.6117895c-5.4509523-2.4804211-9.2652058-8.0922106-9.2652058-14.6037895 0-8.8025263 6.964571-15.96210526 15.5273398-15.96210526zm34.2363383-.00057263c8.5627688 0 15.5449646 7.15957899 15.5449646 15.96210529.0063885 5.1424039-2.4009067 9.9632497-6.4501647 12.9556992l-.2920148.2106166v-21.3781053c-.0130694-.3379177-.2615246-.6092325-.5794577-.6520623l-.0972983-.0058324-3.718247.0789473c-.3009314.0059495-.5526325.2263495-.6139581.5209649l-.0131974.1007614-.9279541 17.1810948c-.011198.1809389.0527995.3569263.1727954.4885052.0972714.1039495.2242425.1721075.3604292.1952127l.1035479.0087368h4.033463v4.2762105c-3.6393098 2.058604-7.9240794 2.5350352-11.8989479 1.3321775l-.3836652-.1216511-.0431989-15.1907369c1.5245199-.295749 2.6437802-1.6270398 2.7219344-3.2028717l.0043405-.190223v-4.9688421c0-.3634863-.2863896-.6578948-.6399755-.6578948-.3214417 0-.5873492.2433128-.6330395.5606441l-.0069359.0972507v4.9688421c.0045102.8792768-.5167712 1.6652877-1.3010808 1.9878249l-.1500763.054954-.0016014-.0016463-.0031989-7.0248421c.0043565-.3304268-.2292927-.6078566-.5374647-.6605089l-.0945238-.0088806c-.3243535.0060096-.5892056.2539365-.6334767.5745278l-.0065029.098188-.0048003 6.9966695c-.7934671-.2713816-1.3464887-1.0010156-1.419108-1.8460246l-.0080474-.1704386v-4.9688421c0-.3634863-.2863895-.6578947-.6399754-.6578947-.3214418 0-.5873493.2433127-.6330396.5606441l-.0069359.0972506v4.9688421c.0076674 1.5789676 1.0519508 2.9456994 2.5240982 3.3406338l.1862029.0442504.0304075 14.70848c-5.5646119-2.4290526-9.4732746-8.1035789-9.4732746-14.7006315 0-8.8025263 6.9678476-15.96210529 15.5289781-15.96210529zm110.7564779-.03732211c2.16973 0 4.310911.31501832 6.423543.94505495s3.968322 1.47252747 5.567071 2.52747252l-2.95483 6.41758243-.536881-.3158323c-1.442258-.8248542-2.969105-1.5107855-4.580542-2.0577941-1.812866-.6153846-3.333105-.9230769-4.560716-.9230769-.970668 0-1.734356.1831502-2.291063.5494505-.556707.3663004-.835061.9010989-.835061 1.6043956 0 .6739927.242667 1.2380953.728002 1.6923077.485334.4542125 1.084865.8205129 1.798592 1.0989011.713727.2783883 1.770043.6373627 3.168948 1.0769231 2.084083.6153846 3.804165 1.2307692 5.160246 1.8461539 1.356082.6153846 2.519457 1.5604395 3.490125 2.8351648.970669 1.2747253 1.456003 2.9377289 1.456003 4.989011 0 2.051282-.528158 3.8021978-1.584474 5.2527472-1.056316 1.4505495-2.505181 2.5421246-4.346597 3.2747253s-3.889812 1.0989011-6.14519 1.0989011c-2.48377 0-4.960403-.4468864-7.429898-1.3406593-2.469496-.8937729-4.60354-2.1172161-6.402132-3.6703297l3.040477-6.2857143.354119.3134144c1.436238 1.2359711 3.109654 2.2597048 5.020246 3.071201 2.069808.8791209 3.904087 1.3186813 5.502835 1.3186813 1.170513 0 2.091221-.2197802 2.762124-.6593406.670903-.4395605 1.006355-1.0842491 1.006355-1.934066 0-.7032967-.249804-1.2893773-.749413-1.7582417-.499609-.4688645-1.127689-.8424909-1.88424-1.1208792-.75655-.2783882-1.820004-.6080586-3.190359-.9890109-2.055534-.5860806-3.754205-1.1794872-5.096011-1.7802198-1.341807-.6007326-2.490908-1.5091575-3.447302-2.7252747-.956394-1.2161173-1.434591-2.8351649-1.434591-4.8571429 0-1.9047619.492471-3.57509158 1.477415-5.01098902.984943-1.43589743 2.383848-2.54212454 4.196715-3.31868132 1.812866-.77655677 3.918361-1.16483516 6.316484-1.16483516zm-77.587013.61538462.52003.00596933c2.927735.06765252 5.53079.71035138 7.809165 1.9280966 2.412397 1.28937729 4.289499 3.0989011 5.631306 5.42857145 1.341807 2.3296703 2.01271 5.003663 2.01271 8.021978s-.67804 5.6996337-2.034122 8.043956c-1.356081 2.3443224-3.26887 4.1611722-5.738365 5.4505495-2.469496 1.2893773-5.302992 1.9340659-8.500489 1.9340659h-12.6329684v-30.81318678zm28.874266 0v30.81318678h-7.836723v-30.81318678zm30.672858 0v6.41758238h-15.844741v5.7582418h14.30309v6.3736264l-14.30309.043956v5.8021978h16.272977v6.4175824h-24.109699v-30.81318678zm-147.1880286-.61538462-.0430689 6.4981455h-14.64341937v6.943224h13.52362847v6.4981455h-13.52362847v11.260485h-7.88160513v-31.2zm87.4696106 7.1648352h-4.924717v17.7582417h5.310129c1.513102 0 2.854909-.3663003 4.025421-1.0989011 1.170512-.7326007 2.084083-1.7728937 2.740712-3.1208791.656629-1.3479853.984943-2.8864469.984943-4.6153846 0-1.7582418-.349726-3.3113553-1.049179-4.6593407-.699452-1.3479853-1.662984-2.3956044-2.890594-3.1428571-1.227611-.7472528-2.626516-1.1208791-4.196715-1.1208791zm-25.4753448 1.2941122v15.9292968h-3.356666l.871964-15.8783116zm-36.3768585-.5180632c1.2575466 0 2.3199263 1.6200421 2.3199263 3.5361684 0 1.866779-1.0064018 3.4506485-2.2207373 3.5328842-.0437326-.0076743-.0874635-.0102325-.131195-.0076743l-.0655979.0076743c-1.2143764-.0822315-2.2223224-1.6661052-2.2223224-3.5328842 0-1.9160842 1.0623797-3.5361684 2.3199263-3.5361684z"
        fill="#f7f7f7" fill-rule="evenodd" />
</svg>